<mxfile host="app.diagrams.net" agent="Mozilla/5.0 (Windows NT 10.0; Win64; x64) AppleWebKit/537.36 (KHTML, like Gecko) Chrome/136.0.0.0 Safari/537.36" version="27.0.6">
  <diagram name="Halaman-1" id="LALNOZJwnEyGHak3MLD_">
    <mxGraphModel grid="1" page="1" gridSize="10" guides="1" tooltips="1" connect="1" arrows="1" fold="1" pageScale="1" pageWidth="827" pageHeight="1169" math="0" shadow="0">
      <root>
        <mxCell id="0" />
        <mxCell id="1" parent="0" />
        <mxCell id="s08hXY6WmM7tMrnOxumh-19" value="Sistem" style="swimlane;whiteSpace=wrap;html=1;" vertex="1" parent="1">
          <mxGeometry x="420" y="420" width="230" height="750" as="geometry" />
        </mxCell>
        <mxCell id="s08hXY6WmM7tMrnOxumh-29" value="" style="group" connectable="0" vertex="1" parent="s08hXY6WmM7tMrnOxumh-19">
          <mxGeometry x="60" y="270" width="135" height="46" as="geometry" />
        </mxCell>
        <mxCell id="s08hXY6WmM7tMrnOxumh-30" value="" style="rounded=1;whiteSpace=wrap;html=1;" vertex="1" parent="s08hXY6WmM7tMrnOxumh-29">
          <mxGeometry width="135" height="46" as="geometry" />
        </mxCell>
        <mxCell id="s08hXY6WmM7tMrnOxumh-31" value="&lt;font style=&quot;font-size: 10px;&quot;&gt;Menampilkan halaman kirim laporan&lt;/font&gt;" style="text;whiteSpace=wrap;html=1;fontStyle=1;align=center;fontSize=11;" vertex="1" parent="s08hXY6WmM7tMrnOxumh-29">
          <mxGeometry x="16.25" width="102.5" height="40" as="geometry" />
        </mxCell>
        <mxCell id="s08hXY6WmM7tMrnOxumh-40" value="" style="group" connectable="0" vertex="1" parent="s08hXY6WmM7tMrnOxumh-19">
          <mxGeometry x="60" y="100" width="135" height="50" as="geometry" />
        </mxCell>
        <mxCell id="s08hXY6WmM7tMrnOxumh-41" value="" style="rounded=1;whiteSpace=wrap;html=1;" vertex="1" parent="s08hXY6WmM7tMrnOxumh-40">
          <mxGeometry width="135" height="50" as="geometry" />
        </mxCell>
        <mxCell id="s08hXY6WmM7tMrnOxumh-42" value="&lt;font style=&quot;font-size: 10px;&quot;&gt;Mencocokan nim dan password pada database&lt;/font&gt;" style="text;whiteSpace=wrap;html=1;fontStyle=1;align=center;" vertex="1" parent="s08hXY6WmM7tMrnOxumh-40">
          <mxGeometry x="6.55" width="121.9" height="50" as="geometry" />
        </mxCell>
        <mxCell id="s08hXY6WmM7tMrnOxumh-67" value="" style="group" connectable="0" vertex="1" parent="s08hXY6WmM7tMrnOxumh-19">
          <mxGeometry x="60" y="200" width="135" height="50" as="geometry" />
        </mxCell>
        <mxCell id="s08hXY6WmM7tMrnOxumh-68" value="" style="rounded=1;whiteSpace=wrap;html=1;" vertex="1" parent="s08hXY6WmM7tMrnOxumh-67">
          <mxGeometry width="135" height="50" as="geometry" />
        </mxCell>
        <mxCell id="s08hXY6WmM7tMrnOxumh-69" value="&lt;span style=&quot;font-size: 10px;&quot;&gt;Menampilkan halaman beranda&lt;/span&gt;" style="text;whiteSpace=wrap;html=1;fontStyle=1;align=center;" vertex="1" parent="s08hXY6WmM7tMrnOxumh-67">
          <mxGeometry x="6.55" width="121.9" height="50" as="geometry" />
        </mxCell>
        <mxCell id="s08hXY6WmM7tMrnOxumh-82" value="" style="group" connectable="0" vertex="1" parent="s08hXY6WmM7tMrnOxumh-19">
          <mxGeometry x="67.5" y="380" width="130" height="60" as="geometry" />
        </mxCell>
        <mxCell id="s08hXY6WmM7tMrnOxumh-83" value="" style="rounded=1;whiteSpace=wrap;html=1;" vertex="1" parent="s08hXY6WmM7tMrnOxumh-82">
          <mxGeometry width="130" height="60" as="geometry" />
        </mxCell>
        <mxCell id="s08hXY6WmM7tMrnOxumh-84" value="Mengirim form yang diisi pengguna" style="text;whiteSpace=wrap;html=1;fontStyle=1;align=center;fontSize=11;" vertex="1" parent="s08hXY6WmM7tMrnOxumh-82">
          <mxGeometry x="5" y="10" width="120" height="35.33" as="geometry" />
        </mxCell>
        <mxCell id="s08hXY6WmM7tMrnOxumh-1" value="Pengguna" style="swimlane;whiteSpace=wrap;html=1;" vertex="1" parent="s08hXY6WmM7tMrnOxumh-19">
          <mxGeometry x="-230" width="230" height="750" as="geometry" />
        </mxCell>
        <mxCell id="s08hXY6WmM7tMrnOxumh-2" value="" style="ellipse;html=1;shape=startState;fillColor=#000000;strokeColor=#ff0000;" vertex="1" parent="s08hXY6WmM7tMrnOxumh-1">
          <mxGeometry x="100" y="30" width="30" height="30" as="geometry" />
        </mxCell>
        <mxCell id="s08hXY6WmM7tMrnOxumh-8" value="" style="group" connectable="0" vertex="1" parent="s08hXY6WmM7tMrnOxumh-1">
          <mxGeometry x="55" y="100" width="120" height="40" as="geometry" />
        </mxCell>
        <mxCell id="s08hXY6WmM7tMrnOxumh-9" value="" style="rounded=1;whiteSpace=wrap;html=1;" vertex="1" parent="s08hXY6WmM7tMrnOxumh-8">
          <mxGeometry y="5" width="110.42" height="32.5" as="geometry" />
        </mxCell>
        <mxCell id="s08hXY6WmM7tMrnOxumh-10" value="&lt;font style=&quot;font-size: 10px;&quot;&gt;Login&lt;/font&gt;" style="text;whiteSpace=wrap;html=1;fontStyle=1;align=center;" vertex="1" parent="s08hXY6WmM7tMrnOxumh-8">
          <mxGeometry x="7.19" y="5" width="82.81" height="15" as="geometry" />
        </mxCell>
        <mxCell id="s08hXY6WmM7tMrnOxumh-14" value="" style="group" connectable="0" vertex="1" parent="s08hXY6WmM7tMrnOxumh-1">
          <mxGeometry x="55" y="340" width="120" height="60" as="geometry" />
        </mxCell>
        <mxCell id="s08hXY6WmM7tMrnOxumh-72" value="&lt;b&gt;&lt;font style=&quot;font-size: 10px;&quot;&gt;Pilih Kirim Laporan&lt;/font&gt;&lt;/b&gt;" style="rounded=1;whiteSpace=wrap;html=1;" vertex="1" parent="s08hXY6WmM7tMrnOxumh-1">
          <mxGeometry x="47.5" y="200" width="135" height="50" as="geometry" />
        </mxCell>
        <mxCell id="s08hXY6WmM7tMrnOxumh-77" value="" style="group" connectable="0" vertex="1" parent="s08hXY6WmM7tMrnOxumh-1">
          <mxGeometry x="50" y="320" width="135" height="53" as="geometry" />
        </mxCell>
        <mxCell id="s08hXY6WmM7tMrnOxumh-78" value="" style="rounded=1;whiteSpace=wrap;html=1;" vertex="1" parent="s08hXY6WmM7tMrnOxumh-77">
          <mxGeometry width="135" height="48.760000000000005" as="geometry" />
        </mxCell>
        <mxCell id="s08hXY6WmM7tMrnOxumh-79" value="Mengisi form yang tersedia" style="text;whiteSpace=wrap;html=1;fontStyle=1;align=center;fontSize=11;" vertex="1" parent="s08hXY6WmM7tMrnOxumh-77">
          <mxGeometry x="17.5" y="4.38" width="100" height="40" as="geometry" />
        </mxCell>
        <mxCell id="s08hXY6WmM7tMrnOxumh-81" style="edgeStyle=orthogonalEdgeStyle;rounded=0;hachureGap=4;orthogonalLoop=1;jettySize=auto;html=1;entryX=0.647;entryY=-0.022;entryDx=0;entryDy=0;entryPerimeter=0;fontFamily=Architects Daughter;fontSource=https%3A%2F%2Ffonts.googleapis.com%2Fcss%3Ffamily%3DArchitects%2BDaughter;" edge="1" parent="s08hXY6WmM7tMrnOxumh-1" source="s08hXY6WmM7tMrnOxumh-2" target="s08hXY6WmM7tMrnOxumh-10">
          <mxGeometry relative="1" as="geometry" />
        </mxCell>
        <mxCell id="s08hXY6WmM7tMrnOxumh-61" style="edgeStyle=orthogonalEdgeStyle;rounded=0;hachureGap=4;orthogonalLoop=1;jettySize=auto;html=1;entryX=0.013;entryY=0.418;entryDx=0;entryDy=0;entryPerimeter=0;fontFamily=Architects Daughter;fontSource=https%3A%2F%2Ffonts.googleapis.com%2Fcss%3Ffamily%3DArchitects%2BDaughter;" edge="1" parent="s08hXY6WmM7tMrnOxumh-19" source="s08hXY6WmM7tMrnOxumh-9" target="s08hXY6WmM7tMrnOxumh-41">
          <mxGeometry relative="1" as="geometry" />
        </mxCell>
        <mxCell id="s08hXY6WmM7tMrnOxumh-74" style="edgeStyle=orthogonalEdgeStyle;rounded=0;hachureGap=4;orthogonalLoop=1;jettySize=auto;html=1;entryX=1;entryY=0.5;entryDx=0;entryDy=0;fontFamily=Architects Daughter;fontSource=https%3A%2F%2Ffonts.googleapis.com%2Fcss%3Ffamily%3DArchitects%2BDaughter;" edge="1" parent="s08hXY6WmM7tMrnOxumh-19" source="s08hXY6WmM7tMrnOxumh-68" target="s08hXY6WmM7tMrnOxumh-72">
          <mxGeometry relative="1" as="geometry" />
        </mxCell>
        <mxCell id="s08hXY6WmM7tMrnOxumh-75" style="edgeStyle=orthogonalEdgeStyle;rounded=0;hachureGap=4;orthogonalLoop=1;jettySize=auto;html=1;entryX=0;entryY=0.5;entryDx=0;entryDy=0;fontFamily=Architects Daughter;fontSource=https%3A%2F%2Ffonts.googleapis.com%2Fcss%3Ffamily%3DArchitects%2BDaughter;" edge="1" parent="s08hXY6WmM7tMrnOxumh-19" source="s08hXY6WmM7tMrnOxumh-72" target="s08hXY6WmM7tMrnOxumh-30">
          <mxGeometry relative="1" as="geometry">
            <Array as="points">
              <mxPoint x="-120" y="293" />
            </Array>
          </mxGeometry>
        </mxCell>
        <mxCell id="s08hXY6WmM7tMrnOxumh-85" style="edgeStyle=orthogonalEdgeStyle;rounded=0;hachureGap=4;orthogonalLoop=1;jettySize=auto;html=1;entryX=0.984;entryY=0.603;entryDx=0;entryDy=0;entryPerimeter=0;fontFamily=Architects Daughter;fontSource=https%3A%2F%2Ffonts.googleapis.com%2Fcss%3Ffamily%3DArchitects%2BDaughter;" edge="1" parent="s08hXY6WmM7tMrnOxumh-19" source="s08hXY6WmM7tMrnOxumh-30" target="s08hXY6WmM7tMrnOxumh-78">
          <mxGeometry relative="1" as="geometry">
            <Array as="points">
              <mxPoint x="128" y="349" />
            </Array>
          </mxGeometry>
        </mxCell>
        <mxCell id="s08hXY6WmM7tMrnOxumh-86" style="edgeStyle=orthogonalEdgeStyle;rounded=0;hachureGap=4;orthogonalLoop=1;jettySize=auto;html=1;entryX=-0.012;entryY=0.603;entryDx=0;entryDy=0;fontFamily=Architects Daughter;fontSource=https%3A%2F%2Ffonts.googleapis.com%2Fcss%3Ffamily%3DArchitects%2BDaughter;entryPerimeter=0;" edge="1" parent="s08hXY6WmM7tMrnOxumh-19" source="s08hXY6WmM7tMrnOxumh-78" target="s08hXY6WmM7tMrnOxumh-83">
          <mxGeometry relative="1" as="geometry">
            <Array as="points">
              <mxPoint x="-110" y="416" />
            </Array>
          </mxGeometry>
        </mxCell>
        <mxCell id="s08hXY6WmM7tMrnOxumh-117" value="" style="ellipse;html=1;shape=endState;fillColor=#000000;strokeColor=#ff0000;" vertex="1" parent="s08hXY6WmM7tMrnOxumh-19">
          <mxGeometry x="112.5" y="650" width="35" height="30" as="geometry" />
        </mxCell>
        <mxCell id="s08hXY6WmM7tMrnOxumh-45" value="Database" style="swimlane;whiteSpace=wrap;html=1;" vertex="1" parent="1">
          <mxGeometry x="650" y="420" width="230" height="750" as="geometry" />
        </mxCell>
        <mxCell id="s08hXY6WmM7tMrnOxumh-49" value="" style="group" connectable="0" vertex="1" parent="s08hXY6WmM7tMrnOxumh-45">
          <mxGeometry x="55" y="360" width="120" height="60" as="geometry" />
        </mxCell>
        <mxCell id="s08hXY6WmM7tMrnOxumh-50" value="" style="group" connectable="0" vertex="1" parent="s08hXY6WmM7tMrnOxumh-49">
          <mxGeometry y="20" width="120" height="50" as="geometry" />
        </mxCell>
        <mxCell id="s08hXY6WmM7tMrnOxumh-51" value="" style="rounded=1;whiteSpace=wrap;html=1;" vertex="1" parent="s08hXY6WmM7tMrnOxumh-50">
          <mxGeometry width="120" height="50" as="geometry" />
        </mxCell>
        <mxCell id="s08hXY6WmM7tMrnOxumh-52" value="Menyimpan data" style="text;whiteSpace=wrap;html=1;fontStyle=1;align=center;fontSize=11;" vertex="1" parent="s08hXY6WmM7tMrnOxumh-50">
          <mxGeometry y="10" width="120" height="40" as="geometry" />
        </mxCell>
        <mxCell id="s08hXY6WmM7tMrnOxumh-54" value="" style="group" connectable="0" vertex="1" parent="s08hXY6WmM7tMrnOxumh-45">
          <mxGeometry x="55" y="100" width="120" height="40" as="geometry" />
        </mxCell>
        <mxCell id="s08hXY6WmM7tMrnOxumh-55" value="&lt;b&gt;&lt;font style=&quot;font-size: 10px;&quot;&gt;Ambil data berdasarkan nim&lt;/font&gt;&lt;/b&gt;" style="rounded=1;whiteSpace=wrap;html=1;" vertex="1" parent="s08hXY6WmM7tMrnOxumh-54">
          <mxGeometry y="5" width="120" height="40" as="geometry" />
        </mxCell>
        <mxCell id="s08hXY6WmM7tMrnOxumh-63" value="" style="rhombus;whiteSpace=wrap;html=1;hachureGap=4;fontFamily=Architects Daughter;fontSource=https%3A%2F%2Ffonts.googleapis.com%2Fcss%3Ffamily%3DArchitects%2BDaughter;" vertex="1" parent="s08hXY6WmM7tMrnOxumh-45">
          <mxGeometry x="105" y="170" width="20" height="20" as="geometry" />
        </mxCell>
        <mxCell id="s08hXY6WmM7tMrnOxumh-64" value="" style="endArrow=none;html=1;rounded=0;hachureGap=4;fontFamily=Architects Daughter;fontSource=https%3A%2F%2Ffonts.googleapis.com%2Fcss%3Ffamily%3DArchitects%2BDaughter;entryX=0.5;entryY=0;entryDx=0;entryDy=0;exitX=0.5;exitY=1;exitDx=0;exitDy=0;" edge="1" parent="s08hXY6WmM7tMrnOxumh-45" source="s08hXY6WmM7tMrnOxumh-55" target="s08hXY6WmM7tMrnOxumh-63">
          <mxGeometry width="50" height="50" relative="1" as="geometry">
            <mxPoint x="-110" y="160" as="sourcePoint" />
            <mxPoint x="-110" y="190" as="targetPoint" />
          </mxGeometry>
        </mxCell>
        <mxCell id="s08hXY6WmM7tMrnOxumh-43" value="&lt;font style=&quot;font-size: 10px;&quot; face=&quot;Times New Roman&quot;&gt;Berhasil?&lt;/font&gt;" style="text;strokeColor=none;fillColor=none;align=left;verticalAlign=middle;spacingLeft=4;spacingRight=4;overflow=hidden;points=[[0,0.5],[1,0.5]];portConstraint=eastwest;rotatable=0;whiteSpace=wrap;html=1;fontFamily=Architects Daughter;fontSource=https%3A%2F%2Ffonts.googleapis.com%2Fcss%3Ffamily%3DArchitects%2BDaughter;" vertex="1" parent="s08hXY6WmM7tMrnOxumh-45">
          <mxGeometry x="60" y="155" width="55" height="20" as="geometry" />
        </mxCell>
        <mxCell id="s08hXY6WmM7tMrnOxumh-66" value="&lt;font style=&quot;font-size: 10px;&quot; face=&quot;Times New Roman&quot;&gt;Tidak&lt;/font&gt;" style="text;strokeColor=none;fillColor=none;align=left;verticalAlign=middle;spacingLeft=4;spacingRight=4;overflow=hidden;points=[[0,0.5],[1,0.5]];portConstraint=eastwest;rotatable=0;whiteSpace=wrap;html=1;fontFamily=Architects Daughter;fontSource=https%3A%2F%2Ffonts.googleapis.com%2Fcss%3Ffamily%3DArchitects%2BDaughter;" vertex="1" parent="s08hXY6WmM7tMrnOxumh-45">
          <mxGeometry x="30" y="175" width="55" height="20" as="geometry" />
        </mxCell>
        <mxCell id="s08hXY6WmM7tMrnOxumh-71" value="&lt;font style=&quot;font-size: 10px;&quot; face=&quot;Times New Roman&quot;&gt;Ya&lt;/font&gt;" style="text;strokeColor=none;fillColor=none;align=left;verticalAlign=middle;spacingLeft=4;spacingRight=4;overflow=hidden;points=[[0,0.5],[1,0.5]];portConstraint=eastwest;rotatable=0;whiteSpace=wrap;html=1;fontFamily=Architects Daughter;fontSource=https%3A%2F%2Ffonts.googleapis.com%2Fcss%3Ffamily%3DArchitects%2BDaughter;" vertex="1" parent="s08hXY6WmM7tMrnOxumh-45">
          <mxGeometry x="115" y="190" width="55" height="20" as="geometry" />
        </mxCell>
        <mxCell id="s08hXY6WmM7tMrnOxumh-88" value="" style="rhombus;whiteSpace=wrap;html=1;hachureGap=4;fontFamily=Architects Daughter;fontSource=https%3A%2F%2Ffonts.googleapis.com%2Fcss%3Ffamily%3DArchitects%2BDaughter;" vertex="1" parent="s08hXY6WmM7tMrnOxumh-45">
          <mxGeometry x="105" y="470" width="20" height="20" as="geometry" />
        </mxCell>
        <mxCell id="s08hXY6WmM7tMrnOxumh-90" value="" style="endArrow=none;html=1;rounded=0;hachureGap=4;fontFamily=Architects Daughter;fontSource=https%3A%2F%2Ffonts.googleapis.com%2Fcss%3Ffamily%3DArchitects%2BDaughter;entryX=0.5;entryY=1;entryDx=0;entryDy=0;exitX=0.5;exitY=0;exitDx=0;exitDy=0;" edge="1" parent="s08hXY6WmM7tMrnOxumh-45" source="s08hXY6WmM7tMrnOxumh-88" target="s08hXY6WmM7tMrnOxumh-52">
          <mxGeometry width="50" height="50" relative="1" as="geometry">
            <mxPoint x="-70" y="380" as="sourcePoint" />
            <mxPoint x="-20" y="330" as="targetPoint" />
          </mxGeometry>
        </mxCell>
        <mxCell id="s08hXY6WmM7tMrnOxumh-112" value="&lt;font style=&quot;font-size: 10px;&quot; face=&quot;Times New Roman&quot;&gt;Tidak&lt;/font&gt;" style="text;strokeColor=none;fillColor=none;align=left;verticalAlign=middle;spacingLeft=4;spacingRight=4;overflow=hidden;points=[[0,0.5],[1,0.5]];portConstraint=eastwest;rotatable=0;whiteSpace=wrap;html=1;fontFamily=Architects Daughter;fontSource=https%3A%2F%2Ffonts.googleapis.com%2Fcss%3Ffamily%3DArchitects%2BDaughter;" vertex="1" parent="s08hXY6WmM7tMrnOxumh-45">
          <mxGeometry x="40" y="480" width="55" height="20" as="geometry" />
        </mxCell>
        <mxCell id="s08hXY6WmM7tMrnOxumh-113" value="&lt;font style=&quot;font-size: 10px;&quot; face=&quot;Times New Roman&quot;&gt;Ya&lt;/font&gt;" style="text;strokeColor=none;fillColor=none;align=left;verticalAlign=middle;spacingLeft=4;spacingRight=4;overflow=hidden;points=[[0,0.5],[1,0.5]];portConstraint=eastwest;rotatable=0;whiteSpace=wrap;html=1;fontFamily=Architects Daughter;fontSource=https%3A%2F%2Ffonts.googleapis.com%2Fcss%3Ffamily%3DArchitects%2BDaughter;" vertex="1" parent="s08hXY6WmM7tMrnOxumh-45">
          <mxGeometry x="120" y="500" width="55" height="20" as="geometry" />
        </mxCell>
        <mxCell id="s08hXY6WmM7tMrnOxumh-116" value="&lt;font style=&quot;font-size: 10px;&quot; face=&quot;Times New Roman&quot;&gt;Berhasil?&lt;/font&gt;" style="text;strokeColor=none;fillColor=none;align=left;verticalAlign=middle;spacingLeft=4;spacingRight=4;overflow=hidden;points=[[0,0.5],[1,0.5]];portConstraint=eastwest;rotatable=0;whiteSpace=wrap;html=1;fontFamily=Architects Daughter;fontSource=https%3A%2F%2Ffonts.googleapis.com%2Fcss%3Ffamily%3DArchitects%2BDaughter;" vertex="1" parent="s08hXY6WmM7tMrnOxumh-45">
          <mxGeometry x="65" y="440" width="55" height="20" as="geometry" />
        </mxCell>
        <mxCell id="s08hXY6WmM7tMrnOxumh-62" style="edgeStyle=orthogonalEdgeStyle;rounded=0;hachureGap=4;orthogonalLoop=1;jettySize=auto;html=1;entryX=0;entryY=0.5;entryDx=0;entryDy=0;fontFamily=Architects Daughter;fontSource=https%3A%2F%2Ffonts.googleapis.com%2Fcss%3Ffamily%3DArchitects%2BDaughter;" edge="1" parent="1" source="s08hXY6WmM7tMrnOxumh-41" target="s08hXY6WmM7tMrnOxumh-55">
          <mxGeometry relative="1" as="geometry" />
        </mxCell>
        <mxCell id="s08hXY6WmM7tMrnOxumh-65" value="" style="endArrow=none;html=1;rounded=0;hachureGap=4;fontFamily=Architects Daughter;fontSource=https%3A%2F%2Ffonts.googleapis.com%2Fcss%3Ffamily%3DArchitects%2BDaughter;entryX=0;entryY=0.5;entryDx=0;entryDy=0;exitX=0.5;exitY=1;exitDx=0;exitDy=0;" edge="1" parent="1" source="s08hXY6WmM7tMrnOxumh-9" target="s08hXY6WmM7tMrnOxumh-63">
          <mxGeometry width="50" height="50" relative="1" as="geometry">
            <mxPoint x="760" y="570" as="sourcePoint" />
            <mxPoint x="760" y="605" as="targetPoint" />
            <Array as="points">
              <mxPoint x="300" y="600" />
            </Array>
          </mxGeometry>
        </mxCell>
        <mxCell id="s08hXY6WmM7tMrnOxumh-70" value="" style="endArrow=none;html=1;rounded=0;hachureGap=4;fontFamily=Architects Daughter;fontSource=https%3A%2F%2Ffonts.googleapis.com%2Fcss%3Ffamily%3DArchitects%2BDaughter;entryX=0.5;entryY=1;entryDx=0;entryDy=0;exitX=1;exitY=0.5;exitDx=0;exitDy=0;" edge="1" parent="1" source="s08hXY6WmM7tMrnOxumh-68" target="s08hXY6WmM7tMrnOxumh-63">
          <mxGeometry width="50" height="50" relative="1" as="geometry">
            <mxPoint x="760" y="560" as="sourcePoint" />
            <mxPoint x="760" y="585" as="targetPoint" />
            <Array as="points">
              <mxPoint x="765" y="645" />
            </Array>
          </mxGeometry>
        </mxCell>
        <mxCell id="s08hXY6WmM7tMrnOxumh-87" style="edgeStyle=orthogonalEdgeStyle;rounded=0;hachureGap=4;orthogonalLoop=1;jettySize=auto;html=1;entryX=0;entryY=0.5;entryDx=0;entryDy=0;fontFamily=Architects Daughter;fontSource=https%3A%2F%2Ffonts.googleapis.com%2Fcss%3Ffamily%3DArchitects%2BDaughter;" edge="1" parent="1" source="s08hXY6WmM7tMrnOxumh-83" target="s08hXY6WmM7tMrnOxumh-52">
          <mxGeometry relative="1" as="geometry" />
        </mxCell>
        <mxCell id="s08hXY6WmM7tMrnOxumh-91" value="" style="group" connectable="0" vertex="1" parent="1">
          <mxGeometry x="480" y="940" width="140" height="80" as="geometry" />
        </mxCell>
        <mxCell id="s08hXY6WmM7tMrnOxumh-92" value="" style="rounded=1;whiteSpace=wrap;html=1;" vertex="1" parent="s08hXY6WmM7tMrnOxumh-91">
          <mxGeometry width="140" height="80" as="geometry" />
        </mxCell>
        <mxCell id="s08hXY6WmM7tMrnOxumh-93" value="Menampilkan pemberitauhan berhasil disimpan&amp;nbsp;" style="text;whiteSpace=wrap;html=1;fontStyle=1;align=center;fontSize=11;" vertex="1" parent="s08hXY6WmM7tMrnOxumh-91">
          <mxGeometry x="5.384615384615384" y="13.333333333333332" width="129.23076923076923" height="47.10666666666666" as="geometry" />
        </mxCell>
        <mxCell id="s08hXY6WmM7tMrnOxumh-94" value="" style="endArrow=none;html=1;rounded=0;hachureGap=4;fontFamily=Architects Daughter;fontSource=https%3A%2F%2Ffonts.googleapis.com%2Fcss%3Ffamily%3DArchitects%2BDaughter;exitX=0;exitY=0.5;exitDx=0;exitDy=0;" edge="1" parent="1" source="s08hXY6WmM7tMrnOxumh-88">
          <mxGeometry width="50" height="50" relative="1" as="geometry">
            <mxPoint x="760" y="900" as="sourcePoint" />
            <mxPoint x="310" y="800" as="targetPoint" />
            <Array as="points">
              <mxPoint x="310" y="900" />
            </Array>
          </mxGeometry>
        </mxCell>
        <mxCell id="s08hXY6WmM7tMrnOxumh-109" value="" style="endArrow=none;html=1;rounded=0;hachureGap=4;fontFamily=Architects Daughter;fontSource=https%3A%2F%2Ffonts.googleapis.com%2Fcss%3Ffamily%3DArchitects%2BDaughter;entryX=1;entryY=0.5;entryDx=0;entryDy=0;exitX=0.5;exitY=1;exitDx=0;exitDy=0;" edge="1" parent="1" source="s08hXY6WmM7tMrnOxumh-88" target="s08hXY6WmM7tMrnOxumh-92">
          <mxGeometry width="50" height="50" relative="1" as="geometry">
            <mxPoint x="760" y="900" as="sourcePoint" />
            <mxPoint x="760" y="860" as="targetPoint" />
            <Array as="points">
              <mxPoint x="765" y="980" />
            </Array>
          </mxGeometry>
        </mxCell>
        <mxCell id="s08hXY6WmM7tMrnOxumh-118" style="edgeStyle=orthogonalEdgeStyle;rounded=0;hachureGap=4;orthogonalLoop=1;jettySize=auto;html=1;entryX=0.5;entryY=0;entryDx=0;entryDy=0;fontFamily=Architects Daughter;fontSource=https%3A%2F%2Ffonts.googleapis.com%2Fcss%3Ffamily%3DArchitects%2BDaughter;" edge="1" parent="1" source="s08hXY6WmM7tMrnOxumh-92" target="s08hXY6WmM7tMrnOxumh-117">
          <mxGeometry relative="1" as="geometry" />
        </mxCell>
      </root>
    </mxGraphModel>
  </diagram>
</mxfile>
